<?xml version="1.0" standalone="no"?>
<!DOCTYPE svg PUBLIC "-//W3C//DTD SVG 20010904//EN"
 "http://www.w3.org/TR/2001/REC-SVG-20010904/DTD/svg10.dtd">
<svg version="1.0" xmlns="http://www.w3.org/2000/svg"
 width="400.000000pt" height="400.000000pt" viewBox="0 0 400.000000 400.000000"
 preserveAspectRatio="xMidYMid meet">

<g transform="translate(0.000000,400.000000) scale(0.100000,-0.100000)"
fill="#000000" stroke="none">
<path d="M1875 3025 c-66 -96 -122 -175 -126 -175 -4 0 -58 73 -119 163 -62
89 -116 166 -120 170 -7 8 -163 -93 -175 -113 -3 -5 58 -99 135 -209 77 -111
140 -206 140 -212 0 -6 -97 -153 -215 -326 l-215 -315 221 -324 c122 -179 219
-331 216 -338 -3 -7 -69 -102 -146 -210 -78 -108 -141 -198 -141 -201 0 -11
173 -126 179 -119 4 5 59 81 121 169 62 88 116 164 120 168 4 5 61 -70 126
-167 66 -96 121 -175 124 -175 3 0 58 79 124 175 65 97 122 172 126 167 4 -4
58 -80 120 -168 62 -88 117 -164 121 -169 6 -7 179 108 179 119 0 3 -63 93
-141 201 -77 108 -143 203 -146 210 -3 7 94 159 216 338 l221 324 -215 315
c-118 173 -215 320 -215 326 0 6 63 101 140 212 77 110 138 204 135 209 -12
20 -168 121 -175 113 -4 -4 -58 -81 -120 -170 -61 -90 -115 -163 -119 -163 -4
0 -60 79 -126 175 -65 96 -121 175 -125 175 -4 0 -60 -79 -125 -175z m189
-290 l58 -85 -48 -71 c-27 -38 -54 -75 -61 -81 -18 -14 -29 -4 -87 81 l-48 71
58 85 c32 47 60 85 64 85 4 0 32 -38 64 -85z m-13 -1297 c24 -34 48 -68 52
-75 8 -14 -86 -163 -103 -163 -17 0 -111 149 -103 163 25 42 97 137 103 137 4
0 27 -28 51 -62z"/>
</g>
</svg>
